<?xml version="1.0" encoding="iso-8859-1"?>
<!-- Generator: Adobe Illustrator 19.0.0, SVG Export Plug-In . SVG Version: 6.00 Build 0)  -->
<svg version="1.1" id="Capa_1" xmlns="http://www.w3.org/2000/svg" xmlns:xlink="http://www.w3.org/1999/xlink" x="0px" y="0px"
	 viewBox="0 0 480 480" style="enable-background:new 0 0 480 480;" xml:space="preserve">
<g>
	<g>
		<path fill="#828feb" d="M472,24H280c-16.098,0.012-31.119,8.093-40,21.52c-8.881-13.427-23.902-21.508-40-21.52H8c-4.418,0-8,3.582-8,8v336
			c0,4.418,3.582,8,8,8h464c4.418,0,8-3.582,8-8V32C480,27.582,476.418,24,472,24z M16,312h168c13.629,0.01,26.607,5.83,35.68,16H16
			V312z M16,360v-16h213.2c1.839,5.135,2.786,10.546,2.8,16H16z M464,360H248c0.014-5.454,0.961-10.865,2.8-16H464V360z M464,328
			H260.32c9.073-10.17,22.051-15.99,35.68-16h168V328z M464,296H296c-2.274,0.004-4.547,0.129-6.808,0.376
			c-0.752,0.08-1.472,0.232-2.208,0.336c-1.48,0.208-2.952,0.416-4.4,0.728c-0.864,0.184-1.696,0.44-2.544,0.656
			c-1.28,0.328-2.568,0.656-3.816,1.064c-0.888,0.288-1.736,0.632-2.608,0.96c-1.168,0.44-2.344,0.88-3.48,1.392
			c-0.864,0.384-1.704,0.8-2.544,1.224c-1.096,0.544-2.176,1.104-3.2,1.704c-0.8,0.472-1.6,0.976-2.4,1.488
			c-1.016,0.64-2.008,1.296-2.976,1.992c-0.8,0.552-1.544,1.128-2.296,1.72c-0.944,0.728-1.848,1.488-2.744,2.272
			c-0.72,0.632-1.432,1.272-2.12,1.928c-0.864,0.8-1.688,1.688-2.504,2.568c-0.416,0.44-0.88,0.848-1.28,1.304V304H232v13.712
			c-0.4-0.456-0.864-0.864-1.28-1.304c-0.8-0.88-1.6-1.736-2.504-2.568c-0.688-0.664-1.4-1.296-2.12-1.928
			c-0.896-0.8-1.8-1.536-2.736-2.272c-0.8-0.592-1.52-1.168-2.304-1.728c-0.976-0.688-1.968-1.344-2.976-1.984
			c-0.8-0.512-1.6-1.016-2.44-1.488c-1.056-0.6-2.136-1.16-3.2-1.704c-0.8-0.416-1.68-0.8-2.544-1.224
			c-1.136-0.512-2.312-0.952-3.48-1.392c-0.872-0.328-1.72-0.672-2.608-0.96c-1.248-0.408-2.528-0.728-3.816-1.064
			c-0.848-0.216-1.68-0.472-2.544-0.656c-1.448-0.312-2.92-0.52-4.4-0.728c-0.736-0.104-1.456-0.256-2.208-0.336
			c-2.272-0.248-4.555-0.373-6.84-0.376H16V40h184c17.673,0,32,14.327,32,32v128h16V72c0-17.673,14.327-32,32-32h184V296z"/>
	</g>
</g>
<g>
	<g>
		<path fill="#828feb" d="M269.656,258.344L197.312,186c23.222-42.724,7.412-96.185-35.312-119.407c-42.724-23.222-96.185-7.412-119.407,35.312
			c-23.222,42.724-7.412,96.185,35.312,119.407c26.22,14.252,57.875,14.252,84.095,0l72.344,72.344
			c3.124,3.123,8.188,3.123,11.312,0l24-24C272.779,266.532,272.779,261.468,269.656,258.344z M120,216c-39.765,0-72-32.236-72-72
			c0-39.765,32.235-72,72-72s72,32.235,72,72C191.952,183.744,159.744,215.952,120,216z M240,276.688L175.512,212.2
			c4.646-3.79,8.897-8.041,12.688-12.688L252.688,264L240,276.688z"/>
	</g>
</g>
<g>
	<g>
		<rect fill="#828feb" x="80" y="104" width="80" height="16"/>
	</g>
</g>
<g>
	<g>
		<rect fill="#828feb" x="64" y="136" width="112" height="16"/>
	</g>
</g>
<g>
	<g>
		<rect fill="#828feb" x="80" y="168" width="80" height="16"/>
	</g>
</g>
<g>
	<g>
		<rect fill="#828feb" x="280" y="64" width="96" height="16"/>
	</g>
</g>
<g>
	<g>
		<rect fill="#828feb" x="280" y="96" width="160" height="16"/>
	</g>
</g>
<g>
	<g>
		<rect fill="#828feb" x="344" y="128" width="96" height="16"/>
	</g>
</g>
<g>
	<g>
		<rect fill="#828feb" x="280" y="160" width="160" height="16"/>
	</g>
</g>
<g>
	<g>
		<rect fill="#828feb" x="280" y="192" width="112" height="16"/>
	</g>
</g>
<g>
	<g>
		<rect fill="#828feb" x="280" y="224" width="160" height="16"/>
	</g>
</g>
<g>
	<g>
		<rect fill="#828feb" x="280" y="256" width="128" height="16"/>
	</g>
</g>
<g>
	<g>
		<rect fill="#828feb" x="40" y="256" width="88" height="16"/>
	</g>
</g>
<g>
	<g>
		<rect fill="#828feb" x="392" y="64" width="48" height="16"/>
	</g>
</g>
<g>
	<g>
		<rect fill="#828feb" x="280" y="128" width="48" height="16"/>
	</g>
</g>
<g>
	<g>
		<rect fill="#828feb" x="408" y="192" width="32" height="16"/>
	</g>
</g>
<g>
	<g>
		<rect fill="#828feb" x="144" y="256" width="32" height="16"/>
	</g>
</g>
<g>
	<g>
		<rect fill="#828feb" x="40" y="224" width="24" height="16"/>
	</g>
</g>
<g>
	<g>
		<path fill="#828feb" d="M440,408H264c-2.122,0-4.156,0.844-5.656,2.344l-16,16c-3.123,3.124-3.123,8.188,0,11.312l16,16
			c1.5,1.5,3.534,2.344,5.656,2.344h176c4.418,0,8-3.582,8-8v-32C448,411.582,444.418,408,440,408z M400,440H267.312l-8-8l8-8H400
			V440z M432,440h-16v-16h16V440z"/>
	</g>
</g>
<g>
</g>
<g>
</g>
<g>
</g>
<g>
</g>
<g>
</g>
<g>
</g>
<g>
</g>
<g>
</g>
<g>
</g>
<g>
</g>
<g>
</g>
<g>
</g>
<g>
</g>
<g>
</g>
<g>
</g>
</svg>
