<svg id="Layer_1" enable-background="new 0 0 512.029 512.029" height="512" viewBox="0 0 512.029 512.029" width="512" xmlns="http://www.w3.org/2000/svg"><path  fill="#fff"  d="m509.257 453.797-39.685-105.821c-6.27-16.725-22.482-27.961-40.345-27.961h-346.455c-17.862 0-34.075 11.236-40.345 27.959-42.365 112.974-42.427 110.055-42.427 120.953 0 23.759 19.329 43.088 43.088 43.088h425.824c29.966 0 50.906-30.046 40.345-58.218zm-40.345 26.218h-425.824c-6.114 0-11.088-4.974-11.088-11.088 0-2.874-3.088 6.224 40.391-109.719 1.613-4.303 5.785-7.193 10.382-7.193h346.455c4.597 0 8.769 2.891 10.382 7.195l39.685 105.822c2.718 7.25-2.671 14.983-10.383 14.983z"/><path fill="#fff" d="m336 432.015h-160c-8.837 0-16 7.163-16 16s7.163 16 16 16h160c8.837 0 16-7.163 16-16s-7.163-16-16-16z"/><path fill="#fff" d="m128 432.015h-32c-8.837 0-16 7.163-16 16s7.163 16 16 16h32c8.837 0 16-7.163 16-16s-7.163-16-16-16z"/><path fill="#fff" d="m432 432.015h-32c-8.837 0-16 7.163-16 16s7.163 16 16 16h32c8.837 0 16-7.163 16-16s-7.163-16-16-16z"/><circle fill="#fff" cx="256" cy="384.015" r="16"/><circle fill="#fff" cx="192" cy="384.015" r="16"/><circle fill="#fff" cx="128" cy="384.015" r="16"/><circle fill="#fff" cx="320" cy="384.015" r="16"/><circle cx="384" cy="384.015" r="16"/><path fill="#fff" d="m96 288.015h320c26.467 0 48-21.533 48-48v-192c0-26.467-21.533-48-48-48h-320c-26.467 0-48 21.533-48 48v192c0 26.466 21.533 48 48 48zm-16-240c0-8.822 7.178-16 16-16h320c8.822 0 16 7.178 16 16v192c0 8.822-7.178 16-16 16h-320c-8.822 0-16-7.178-16-16z"/><path fill="#fff" d="m400 176.015c8.837 0 16-7.163 16-16v-32c0-8.837-7.163-16-16-16s-16 7.163-16 16v32c0 8.837 7.163 16 16 16z"/></svg>